<?xml version="1.0" encoding="UTF-8" standalone="no"?><!DOCTYPE svg PUBLIC "-//W3C//DTD SVG 1.1//EN" "http://www.w3.org/Graphics/SVG/1.1/DTD/svg11.dtd"><svg width="100%" height="100%" viewBox="0 0 80 81" version="1.1" xmlns="http://www.w3.org/2000/svg" xmlns:xlink="http://www.w3.org/1999/xlink" xml:space="preserve" xmlns:serif="http://www.serif.com/" style="fill-rule:evenodd;clip-rule:evenodd;stroke-linejoin:round;stroke-miterlimit:2;"><rect id="Artboard1" x="0" y="0" width="79.986" height="80.318" style="fill:none;"/><g id="g3019"><path d="M72.183,78.031c3.098,-0.005 5.599,-2.448 5.599,-5.462l0,-65.324c0,-3.015 -2.507,-5.462 -5.599,-5.462l-64.569,0c-3.092,0 -5.599,2.447 -5.599,5.462l0,65.324c0,3.014 2.501,5.457 5.599,5.462l64.569,0Zm-52.923,-51.551c3.991,0 6.475,-2.644 6.475,-5.948c-0.074,-3.379 -2.484,-5.949 -6.399,-5.949c-3.915,0 -6.474,2.57 -6.474,5.949c0,3.304 2.483,5.948 6.324,5.948l0.074,0Zm12.055,39.131l0,0c0.001,-0.277 0.15,-31.214 0,-34.43l11.444,0l0,4.88l-0.077,0.113l0.077,0l0,-0.113c1.516,-2.346 4.237,-5.688 10.313,-5.688c7.53,0 13.175,4.921 13.175,15.496l0,19.742l-11.443,0l0,-18.419c0,-4.629 -1.656,-7.786 -5.797,-7.786c-3.162,0 -5.045,2.129 -5.872,4.185c-0.302,0.736 -0.376,1.764 -0.376,2.793l0,19.227l-11.444,0l0,0Zm-6.333,0l-11.444,0l0,-34.43l11.444,0l0,34.43Z" style="fill:#fff;"/></g></svg>