<?xml version="1.0" encoding="UTF-8" standalone="no"?><!DOCTYPE svg PUBLIC "-//W3C//DTD SVG 1.1//EN" "http://www.w3.org/Graphics/SVG/1.1/DTD/svg11.dtd"><svg width="100%" height="100%" viewBox="0 0 64 64" version="1.1" xmlns="http://www.w3.org/2000/svg" xmlns:xlink="http://www.w3.org/1999/xlink" xml:space="preserve" xmlns:serif="http://www.serif.com/" style="fill-rule:evenodd;clip-rule:evenodd;stroke-linejoin:round;stroke-miterlimit:2;"><rect id="Mail_Logo" x="0" y="0" width="64" height="64" style="fill:none;"/><g id="Mail_Logo1" serif:id="Mail_Logo"><path d="M61.084,18.298l0,28.416c0,3.654 -2.959,6.622 -6.637,6.637l-44.894,0c-3.663,0 -6.637,-2.974 -6.637,-6.637l0,-28.387l27.803,23.194c0.322,0.247 0.634,0.39 0.936,0.441l0.021,0.007l0.072,0.006l0.18,0.027l0.055,-0.005l0.055,0.005l0.18,-0.027l0.072,-0.006l0.021,-0.007c0.302,-0.051 0.614,-0.194 0.936,-0.441l27.837,-23.223Zm-6.637,-9.193c2.865,0.011 5.293,1.814 6.218,4.334l-28.682,23.927l-28.656,-23.905c0.926,-2.537 3.351,-4.344 6.226,-4.356l44.894,0Z" style="fill:#fff;"/></g></svg>